HIERARCHY
ROOT Hips
{
	OFFSET 0.000000 83.214638 0.000000
	CHANNELS 6 Xposition Yposition Zposition Xrotation Yrotation Zrotation
	JOINT Pelvis
	{
		OFFSET 0.000000 0.000000 0.000000
		CHANNELS 3 Xrotation Yrotation Zrotation
		JOINT LeftUpLeg
		{
			OFFSET 8.479700 -4.795502 -0.379100
			CHANNELS 3 Xrotation Yrotation Zrotation
			JOINT LeftLeg
			{
				OFFSET 0.024144 -32.555107 0.112900
				CHANNELS 3 Xrotation Yrotation Zrotation
				JOINT LeftFoot
				{
					OFFSET -0.024144 -32.638630 -3.012600
					CHANNELS 3 Xrotation Yrotation Zrotation
					JOINT LeftToeBase
					{
						OFFSET 0.970200 -13.225400 11.864200
						CHANNELS 3 Xrotation Yrotation Zrotation
						End Site
						{
							OFFSET 0.000000 12.319262 0.000000
						}
					}
					JOINT LFootTongue
					{
						OFFSET 1.142400 -1.059800 6.665200
						CHANNELS 3 Xrotation Yrotation Zrotation
						End Site
						{
							OFFSET 0.000000 12.319262 0.000000
						}
					}
				}
				JOINT LeftPantLeg
				{
					OFFSET 0.918482 -16.533964 -2.284700
					CHANNELS 3 Xrotation Yrotation Zrotation
					End Site
					{
						OFFSET 0.350399 24.744368 0.000000
					}
				}
			}
		}
		JOINT RightUpLeg
		{
			OFFSET -8.479700 -4.795502 -0.379100
			CHANNELS 3 Xrotation Yrotation Zrotation
			JOINT RightLeg
			{
				OFFSET -0.023144 -32.555092 0.112900
				CHANNELS 3 Xrotation Yrotation Zrotation
				JOINT RightFoot
				{
					OFFSET 0.023144 -32.638641 -3.012700
					CHANNELS 3 Xrotation Yrotation Zrotation
					JOINT RightToeBase
					{
						OFFSET -0.970200 -13.225400 11.864200
						CHANNELS 3 Xrotation Yrotation Zrotation
						End Site
						{
							OFFSET 0.000000 12.319244 0.000000
						}
					}
					JOINT RFootTongue
					{
						OFFSET -1.142200 -1.059800 6.665200
						CHANNELS 3 Xrotation Yrotation Zrotation
						End Site
						{
							OFFSET 0.000000 12.319243 0.000000
						}
					}
				}
				JOINT RightPantLeg
				{
					OFFSET -0.919482 -16.533978 -2.284800
					CHANNELS 3 Xrotation Yrotation Zrotation
					End Site
					{
						OFFSET -0.350400 24.744419 0.000000
					}
				}
			}
		}
	}
	JOINT Spine
	{
		OFFSET 0.000000 7.722000 1.166200
		CHANNELS 3 Xrotation Yrotation Zrotation
		JOINT Spine1
		{
			OFFSET 0.000000 12.024101 0.248800
			CHANNELS 3 Xrotation Yrotation Zrotation
			JOINT Spine2
			{
				OFFSET 0.000000 11.502998 -0.491200
				CHANNELS 3 Xrotation Yrotation Zrotation
				JOINT Neck
				{
					OFFSET 0.000000 18.430702 -3.123100
					CHANNELS 3 Xrotation Yrotation Zrotation
					JOINT Head
					{
						OFFSET 0.000000 9.051102 1.034000
						CHANNELS 3 Xrotation Yrotation Zrotation
						JOINT HairB
						{
							OFFSET 0.208400 24.786102 24.822300
							CHANNELS 3 Xrotation Yrotation Zrotation
							End Site
							{
								OFFSET 0.000000 32.263779 0.000000
							}
						}
						JOINT HairA
						{
							OFFSET -7.081100 24.428299 23.196600
							CHANNELS 3 Xrotation Yrotation Zrotation
							End Site
							{
								OFFSET 0.000000 32.263779 0.000000
							}
						}
						JOINT Hat
						{
							OFFSET 16.728800 15.048294 -15.439601
							CHANNELS 3 Xrotation Yrotation Zrotation
							End Site
							{
								OFFSET 0.000000 32.263779 0.000000
							}
						}
					}
				}
				JOINT LeftShoulder
				{
					OFFSET 6.197800 13.665199 -4.064700
					CHANNELS 3 Xrotation Yrotation Zrotation
					JOINT LeftArm
					{
						OFFSET 7.778100 -0.187103 -1.709300
						CHANNELS 3 Xrotation Yrotation Zrotation
						JOINT LeftForeArm
						{
							OFFSET 22.049376 0.000000 0.000000
							CHANNELS 3 Xrotation Yrotation Zrotation
							JOINT LeftHand
							{
								OFFSET 23.009392 0.000000 0.000000
								CHANNELS 3 Xrotation Yrotation Zrotation
								JOINT LeftHandThumb1
								{
									OFFSET 3.507191 -2.063065 3.133727
									CHANNELS 3 Xrotation Yrotation Zrotation
									JOINT LeftHandThumb2
									{
										OFFSET 3.101337 -1.790558 1.790558
										CHANNELS 3 Xrotation Yrotation Zrotation
										JOINT LeftHandThumb3
										{
											OFFSET 3.058640 -1.765907 1.765906
											CHANNELS 3 Xrotation Yrotation Zrotation
											End Site
											{
												OFFSET -0.415260 3.926476 -0.049563
											}
										}
									}
								}
								JOINT LeftHandIndex1
								{
									OFFSET 11.334419 -0.901459 3.706815
									CHANNELS 3 Xrotation Yrotation Zrotation
									JOINT LeftHandIndex2
									{
										OFFSET 3.283112 0.000000 0.000000
										CHANNELS 3 Xrotation Yrotation Zrotation
										JOINT LeftHandIndex3
										{
											OFFSET 3.323853 0.000000 0.000000
											CHANNELS 3 Xrotation Yrotation Zrotation
											End Site
											{
												OFFSET -1.135597 3.097809 0.402452
											}
										}
									}
								}
								JOINT LeftHandMiddle1
								{
									OFFSET 11.335861 0.000000 0.000000
									CHANNELS 3 Xrotation Yrotation Zrotation
									JOINT LeftHandMiddle2
									{
										OFFSET 3.410492 0.000000 0.000000
										CHANNELS 3 Xrotation Yrotation Zrotation
										JOINT LeftHandMiddle3
										{
											OFFSET 3.312172 0.000000 0.000000
											CHANNELS 3 Xrotation Yrotation Zrotation
											End Site
											{
												OFFSET -1.150200 3.080154 0.400270
											}
										}
									}
								}
								JOINT LeftHandRing1
								{
									OFFSET 11.514786 -0.013176 -3.003090
									CHANNELS 3 Xrotation Yrotation Zrotation
									JOINT LeftHandRing2
									{
										OFFSET 3.053307 0.000000 0.000000
										CHANNELS 3 Xrotation Yrotation Zrotation
										JOINT LeftHandRing3
										{
											OFFSET 3.295807 0.000000 0.000000
											CHANNELS 3 Xrotation Yrotation Zrotation
											End Site
											{
												OFFSET -1.281006 3.013344 0.375733
											}
										}
									}
								}
								JOINT LeftHandPinky1
								{
									OFFSET 10.518692 -0.960396 -5.730441
									CHANNELS 3 Xrotation Yrotation Zrotation
									JOINT LeftHandPinky2
									{
										OFFSET 2.861649 0.000000 0.000000
										CHANNELS 3 Xrotation Yrotation Zrotation
										JOINT LeftHandPinky3
										{
											OFFSET 2.863380 0.000000 0.000000
											CHANNELS 3 Xrotation Yrotation Zrotation
											End Site
											{
												OFFSET -0.843597 2.711159 0.369971
											}
										}
									}
								}
							}
							JOINT LSleeve
							{
								OFFSET 6.676277 -0.344902 -1.011730
								CHANNELS 3 Xrotation Yrotation Zrotation
								End Site
								{
									OFFSET 0.000000 14.885353 0.000000
								}
							}
						}
					}
				}
				JOINT RightShoulder
				{
					OFFSET -6.197800 13.665199 -4.064700
					CHANNELS 3 Xrotation Yrotation Zrotation
					JOINT RightArm
					{
						OFFSET -7.778100 -0.187103 -1.709300
						CHANNELS 3 Xrotation Yrotation Zrotation
						JOINT RightForeArm
						{
							OFFSET -22.049376 0.000000 0.000000
							CHANNELS 3 Xrotation Yrotation Zrotation
							JOINT RightHand
							{
								OFFSET -23.009392 0.000000 0.000000
								CHANNELS 3 Xrotation Yrotation Zrotation
								JOINT RightHandThumb1
								{
									OFFSET -3.507191 -2.063065 3.133727
									CHANNELS 3 Xrotation Yrotation Zrotation
									JOINT RightHandThumb2
									{
										OFFSET -3.101337 -1.790558 1.790558
										CHANNELS 3 Xrotation Yrotation Zrotation
										JOINT RightHandThumb3
										{
											OFFSET -3.058640 -1.765907 1.765906
											CHANNELS 3 Xrotation Yrotation Zrotation
											End Site
											{
												OFFSET 0.415260 3.926476 -0.049563
											}
										}
									}
								}
								JOINT RightHandIndex1
								{
									OFFSET -11.334419 -0.901459 3.706815
									CHANNELS 3 Xrotation Yrotation Zrotation
									JOINT RightHandIndex2
									{
										OFFSET -3.283112 0.000000 0.000000
										CHANNELS 3 Xrotation Yrotation Zrotation
										JOINT RightHandIndex3
										{
											OFFSET -3.323853 0.000000 0.000000
											CHANNELS 3 Xrotation Yrotation Zrotation
											End Site
											{
												OFFSET 1.135597 3.097809 0.402452
											}
										}
									}
								}
								JOINT RightHandMiddle1
								{
									OFFSET -11.335861 0.000000 0.000000
									CHANNELS 3 Xrotation Yrotation Zrotation
									JOINT RightHandMiddle2
									{
										OFFSET -3.410492 0.000000 0.000000
										CHANNELS 3 Xrotation Yrotation Zrotation
										JOINT RightHandMiddle3
										{
											OFFSET -3.312172 0.000000 0.000000
											CHANNELS 3 Xrotation Yrotation Zrotation
											End Site
											{
												OFFSET 1.150200 3.080154 0.400270
											}
										}
									}
								}
								JOINT RightHandRing1
								{
									OFFSET -11.514786 -0.013176 -3.003090
									CHANNELS 3 Xrotation Yrotation Zrotation
									JOINT RightHandRing2
									{
										OFFSET -3.053307 0.000000 0.000000
										CHANNELS 3 Xrotation Yrotation Zrotation
										JOINT RightHandRing3
										{
											OFFSET -3.295807 0.000000 0.000000
											CHANNELS 3 Xrotation Yrotation Zrotation
											End Site
											{
												OFFSET 1.281006 3.013344 0.375733
											}
										}
									}
								}
								JOINT RightHandPinky1
								{
									OFFSET -10.518692 -0.960396 -5.730441
									CHANNELS 3 Xrotation Yrotation Zrotation
									JOINT RightHandPinky2
									{
										OFFSET -2.861649 0.000000 0.000000
										CHANNELS 3 Xrotation Yrotation Zrotation
										JOINT RightHandPinky3
										{
											OFFSET -2.863380 0.000000 0.000000
											CHANNELS 3 Xrotation Yrotation Zrotation
											End Site
											{
												OFFSET 0.843597 2.711159 0.369971
											}
										}
									}
								}
							}
							JOINT RSleeve
							{
								OFFSET -6.676277 -0.344902 -1.011730
								CHANNELS 3 Xrotation Yrotation Zrotation
								End Site
								{
									OFFSET 0.000000 14.885353 0.000000
								}
							}
						}
					}
				}
				JOINT Backpack
				{
					OFFSET 0.000000 -2.471497 36.677502
					CHANNELS 3 Xrotation Yrotation Zrotation
					End Site
					{
						OFFSET 0.000000 20.427315 0.000000
					}
				}
				JOINT Hood
				{
					OFFSET 0.000000 18.754097 -10.431000
					CHANNELS 3 Xrotation Yrotation Zrotation
					JOINT Hood1
					{
						OFFSET 0.000000 -5.011002 -7.685901
						CHANNELS 3 Xrotation Yrotation Zrotation
						End Site
						{
							OFFSET 0.000000 9.175140 0.000000
						}
					}
				}
				JOINT LHoodieString
				{
					OFFSET 5.250500 16.397697 3.089900
					CHANNELS 3 Xrotation Yrotation Zrotation
					JOINT LHoodieString1
					{
						OFFSET 0.257700 -6.364304 3.694600
						CHANNELS 3 Xrotation Yrotation Zrotation
						JOINT LHoodieString2
						{
							OFFSET 0.000000 -9.643799 2.679100
							CHANNELS 3 Xrotation Yrotation Zrotation
							End Site
							{
								OFFSET 0.000000 10.009018 0.000000
							}
						}
					}
				}
				JOINT RHoodieString
				{
					OFFSET -5.250500 16.397697 3.089900
					CHANNELS 3 Xrotation Yrotation Zrotation
					JOINT RHoodieString1
					{
						OFFSET -0.257700 -6.364304 3.694600
						CHANNELS 3 Xrotation Yrotation Zrotation
						JOINT RHoodieString2
						{
							OFFSET 0.000000 -9.643799 2.679100
							CHANNELS 3 Xrotation Yrotation Zrotation
							End Site
							{
								OFFSET 0.000000 10.009018 0.000000
							}
						}
					}
				}
			}
			JOINT LBackpack_Strap
			{
				OFFSET 15.223200 -7.719803 -6.610900
				CHANNELS 3 Xrotation Yrotation Zrotation
				End Site
				{
					OFFSET 0.000000 16.040596 0.000000
				}
			}
			JOINT RBackpack_Strap
			{
				OFFSET -15.223000 -7.719803 -6.610900
				CHANNELS 3 Xrotation Yrotation Zrotation
				End Site
				{
					OFFSET 0.000000 16.040596 0.000000
				}
			}
		}
	}
	JOINT BoyFacialAnim_Joint
	{
		OFFSET 1.000000 -82.208099 -1.550900
		CHANNELS 3 Xrotation Yrotation Zrotation
		End Site
		{
			OFFSET 0.000000 30.012791 0.000000
		}
	}
}
MOTION
Frames: 4
Frame Time: 0.016667
-0.250042 70.702049 0.244969 11.695790 -49.489536 11.290272 0.000000 0.000001 0.000000 -64.578530 28.127882 42.220934 45.036061 -20.081190 3.175740 2.545513 0.952088 -10.119427 0.000000 -0.000002 -0.000000 0.000000 -0.000002 0.000000 -0.000000 0.000001 -0.000000 -33.975485 -0.459122 -24.258137 53.259599 1.997578 -6.750467 -26.565406 -2.745283 24.293525 -0.000000 -0.000000 0.000000 -0.000000 -0.000000 0.000000 -0.000000 0.000001 -0.000002 10.973357 2.836696 -2.050358 6.100707 5.566533 -4.284680 -5.786922 6.328134 -3.046180 2.318913 9.363324 -0.265303 -4.146748 23.161902 -3.523334 -0.000001 -0.000000 -0.000000 -0.000001 -0.000000 -0.000000 -0.000001 -0.000000 -0.000000 -1.875336 -16.181739 -2.870472 -10.644679 2.164765 -45.510633 -22.862383 -25.786269 -15.871678 2.491055 -2.511879 6.860491 18.457953 -9.513805 13.216583 -1.150195 11.255335 -8.400839 -0.000003 -0.000003 0.000002 -1.232803 -5.771934 -0.192344 0.133951 -0.197648 -4.602120 -0.000002 -0.000001 -0.000000 1.884732 4.663373 -4.597406 0.476697 -1.009845 -12.986449 0.000004 0.000004 -0.000001 3.024629 7.938923 -14.103508 -0.708000 -0.566230 -18.895706 -0.000000 -0.000003 0.000003 2.010394 6.305955 -22.386531 -0.815379 -0.210757 -16.746476 0.000000 0.000000 -0.000000 -0.000000 0.000002 0.000000 -5.074768 24.344976 1.482926 6.642460 -34.735016 57.610419 -21.032058 44.833867 19.961747 -0.087235 35.608481 7.474296 55.149529 18.649555 -29.698277 -0.442540 -14.180539 7.313142 0.000001 -0.000000 0.000000 5.673365 7.585012 36.844171 1.050460 3.824478 68.900257 -0.000001 -0.000001 0.000003 -0.125690 1.886079 45.000773 -1.169018 3.204690 68.417691 -0.000003 -0.000000 0.000003 -5.312016 1.216617 58.508828 -0.745195 1.667581 48.011251 -0.000002 0.000000 0.000002 -7.756800 -9.376466 47.264025 -0.526051 1.541586 45.600491 -0.000000 -0.000002 0.000002 -0.000000 0.000003 -0.000004 0.000002 -0.000001 -0.000000 0.000002 -0.000001 -0.000000 0.000002 -0.000001 -0.000000 0.000002 -0.000001 -0.000000 0.000002 -0.000001 0.000001 0.000000 -0.000002 0.000002 0.000002 -0.000001 -0.000000 0.000002 -0.000001 0.000001 0.000000 -0.000002 0.000002 0.000001 -0.000001 0.000001 0.000001 -0.000001 0.000001 0.000000 0.000001 0.000000 
-0.267186 70.754272 0.141237 11.497787 -49.796778 11.073849 -0.000000 0.000001 -0.000000 -64.347923 28.154684 42.451627 44.742739 -20.010813 3.161673 2.687251 0.965942 -10.268129 -0.000000 0.000000 0.000000 -0.000000 0.000000 -0.000000 0.000000 0.000002 -0.000000 -33.976329 -0.559585 -24.097415 53.223662 2.164965 -6.739249 -26.487325 -2.553280 24.103024 -0.000000 -0.000002 -0.000000 -0.000000 -0.000002 -0.000000 -0.000001 -0.000003 -0.000001 10.952058 2.836627 -2.059332 5.917135 5.588676 -4.389562 -5.960385 6.358697 -3.163037 2.261345 9.594040 -0.194441 -3.771944 23.396941 -3.738608 0.000000 -0.000000 -0.000000 0.000000 -0.000000 -0.000000 0.000000 -0.000000 -0.000000 -1.850130 -16.049194 -2.794400 -9.956437 2.817349 -45.285916 -23.315170 -27.943277 -17.248413 2.184528 -1.065439 7.247048 18.457985 -9.513794 13.216588 -1.150184 11.255323 -8.400836 -0.000001 -0.000001 0.000003 -1.232785 -5.771930 -0.192340 0.133958 -0.197660 -4.602081 -0.000004 -0.000003 -0.000002 1.884752 4.663392 -4.597380 0.476677 -1.009841 -12.986450 0.000000 -0.000001 -0.000000 3.024628 7.938923 -14.103473 -0.708000 -0.566206 -18.895741 -0.000001 0.000001 -0.000002 2.010431 6.305932 -22.386551 -0.815409 -0.210732 -16.746451 -0.000002 -0.000003 -0.000001 -0.000002 -0.000000 0.000001 -5.082248 24.342378 1.499009 5.825095 -34.063796 57.690168 -20.478451 43.293970 19.040921 0.231105 35.997166 7.762157 55.149526 18.649555 -29.698277 -0.442540 -14.180536 7.313139 0.000000 -0.000001 -0.000001 5.673364 7.585013 36.844171 1.050458 3.824480 68.900257 -0.000004 -0.000001 0.000003 -0.125691 1.886081 45.000773 -1.169019 3.204684 68.417691 -0.000000 -0.000000 0.000002 -5.312020 1.216620 58.508828 -0.745195 1.667581 48.011251 -0.000003 -0.000000 0.000006 -7.756802 -9.376463 47.264025 -0.526049 1.541592 45.600488 0.000003 0.000001 -0.000001 -0.000002 0.000002 -0.000001 0.000002 -0.000003 0.000001 0.000002 -0.000003 0.000001 0.000002 -0.000003 0.000001 0.000002 -0.000003 0.000001 0.000002 -0.000003 0.000001 0.000001 -0.000003 0.000001 0.000002 -0.000003 0.000001 0.000002 -0.000003 0.000001 0.000001 -0.000003 0.000001 0.000001 0.000002 -0.000000 0.000001 0.000002 -0.000000 -0.000000 0.000001 -0.000000 
-0.289668 70.807274 0.044020 11.363342 -50.142878 10.910815 -0.000000 0.000001 -0.000000 -64.143399 28.192166 42.719367 44.448132 -19.936873 3.134482 2.813595 0.989676 -10.425192 -0.000000 -0.000003 -0.000000 -0.000000 -0.000003 -0.000000 -0.000000 0.000003 0.000000 -34.018628 -0.639361 -23.931924 53.181256 2.349537 -6.722123 -26.403293 -2.346590 23.905165 0.000000 0.000002 0.000000 0.000000 0.000002 0.000000 -0.000002 -0.000001 -0.000002 10.928111 2.835634 -2.057868 5.754454 5.620920 -4.465463 -6.114664 6.395243 -3.246985 2.473463 9.737927 -0.469675 -4.007684 23.494369 -3.699871 0.000000 0.000000 -0.000000 0.000000 0.000000 -0.000000 0.000000 0.000000 -0.000000 -1.856187 -16.125032 -2.793417 -9.304242 3.610402 -44.990606 -23.777466 -29.920702 -18.575196 1.944026 0.057012 7.820670 18.457983 -9.513788 13.216601 -1.150184 11.255277 -8.400867 -0.000000 -0.000003 0.000001 -1.232760 -5.771945 -0.192327 0.133941 -0.197690 -4.602112 -0.000001 0.000002 -0.000005 1.884740 4.663368 -4.597386 0.476693 -1.009848 -12.986429 0.000003 0.000001 0.000000 3.024645 7.938906 -14.103475 -0.708018 -0.566201 -18.895746 -0.000003 -0.000000 -0.000002 2.010402 6.305934 -22.386508 -0.815377 -0.210734 -16.746475 0.000002 -0.000001 -0.000000 0.000001 0.000003 -0.000001 -5.081653 24.149920 1.470715 7.290164 -35.178941 57.904500 -21.255089 45.591158 20.253089 -0.452719 34.561550 8.086137 55.149526 18.649558 -29.698274 -0.442541 -14.180542 7.313144 0.000001 -0.000002 -0.000001 5.673364 7.585012 36.844171 1.050459 3.824479 68.900257 -0.000001 0.000000 0.000004 -0.125690 1.886078 45.000773 -1.169018 3.204685 68.417691 0.000003 -0.000000 -0.000000 -5.312017 1.216620 58.508828 -0.745197 1.667580 48.011247 -0.000000 0.000001 0.000001 -7.756802 -9.376464 47.264025 -0.526049 1.541589 45.600491 -0.000002 0.000001 -0.000003 0.000003 -0.000001 -0.000001 -0.000000 -0.000000 -0.000000 -0.000000 -0.000000 -0.000000 -0.000000 -0.000000 -0.000000 -0.000000 -0.000000 -0.000000 -0.000000 -0.000000 0.000000 -0.000001 -0.000000 0.000000 -0.000000 -0.000000 -0.000000 -0.000000 -0.000000 0.000000 -0.000001 -0.000000 0.000000 0.000001 -0.000001 -0.000001 0.000001 -0.000001 -0.000001 -0.000000 0.000001 -0.000000 
-0.315837 70.861275 -0.050694 11.217104 -50.472222 10.773040 -0.000000 -0.000004 0.000000 -63.867917 28.240172 42.874873 44.144681 -19.817036 3.171247 2.932494 1.032277 -10.634114 -0.000000 -0.000000 0.000000 -0.000000 -0.000000 -0.000000 -0.000001 -0.000001 -0.000000 -34.047550 -0.702161 -23.801843 53.145473 2.527001 -6.705972 -26.327898 -2.150401 23.714823 0.000000 -0.000002 -0.000000 0.000000 -0.000002 -0.000000 -0.000000 -0.000000 0.000000 10.917587 2.822860 -2.065611 5.661718 5.628863 -4.526594 -6.202369 6.409828 -3.316672 2.263844 9.977094 -0.273081 -3.343279 23.780205 -4.097042 -0.000000 -0.000000 -0.000000 -0.000000 -0.000000 -0.000000 -0.000000 -0.000000 -0.000000 -1.837234 -16.093985 -2.699866 -8.760456 4.176577 -44.764968 -24.203697 -31.576873 -19.708431 1.849850 0.895191 8.346059 18.457966 -9.513813 13.216574 -1.150192 11.255330 -8.400839 -0.000000 0.000001 -0.000001 -1.232787 -5.771941 -0.192322 0.133957 -0.197670 -4.602149 -0.000004 -0.000001 -0.000002 1.884741 4.663381 -4.597420 0.476680 -1.009830 -12.986407 0.000000 -0.000001 0.000002 3.024650 7.938922 -14.103481 -0.708013 -0.566187 -18.895768 -0.000002 0.000003 -0.000005 2.010405 6.305934 -22.386543 -0.815377 -0.210750 -16.746485 0.000000 0.000002 0.000000 0.000000 -0.000001 -0.000001 -5.039715 24.119903 1.323477 8.594044 -36.353955 58.117055 -22.083521 47.698448 21.417713 -0.802632 33.303832 8.194887 55.149526 18.649557 -29.698274 -0.442541 -14.180535 7.313145 0.000001 -0.000001 0.000000 5.673369 7.585010 36.844165 1.050461 3.824478 68.900257 -0.000002 -0.000001 -0.000000 -0.125690 1.886079 45.000773 -1.169017 3.204689 68.417691 -0.000001 0.000001 0.000002 -5.312017 1.216617 58.508828 -0.745196 1.667586 48.011251 -0.000002 0.000000 0.000002 -7.756803 -9.376466 47.264025 -0.526051 1.541583 45.600491 -0.000001 0.000003 -0.000006 -0.000002 -0.000003 0.000003 -0.000000 -0.000000 -0.000000 -0.000000 -0.000000 -0.000000 -0.000000 -0.000000 -0.000000 -0.000000 -0.000000 -0.000000 -0.000000 -0.000000 -0.000001 -0.000000 -0.000002 0.000000 -0.000000 -0.000000 -0.000000 -0.000000 -0.000000 -0.000001 -0.000000 -0.000002 0.000000 0.000001 -0.000000 0.000000 0.000001 -0.000000 0.000000 -0.000000 -0.000004 0.000000 
